<svg width="88" height="24" viewBox="0 0 88 24" fill="none" xmlns="http://www.w3.org/2000/svg">
<g clip-path="url(#clip0_1291_326)">
<path d="M43.4783 5.3913C40.1183 5.3913 37.3914 8.11825 37.3914 11.4783C37.3914 14.8383 40.1183 17.5652 43.4783 17.5652C46.8383 17.5652 49.5653 14.8383 49.5653 11.4783C49.5653 8.11825 46.8383 5.3913 43.4783 5.3913ZM43.4783 16.3478C40.7879 16.3478 38.6087 14.1687 38.6087 11.4783C38.6087 10.3522 38.9922 9.31738 39.6374 8.49564L46.4609 15.3191C45.6392 15.9643 44.6044 16.3478 43.4783 16.3478ZM47.3192 14.4609L40.4957 7.63738C41.3174 6.99217 42.3522 6.60869 43.4783 6.60869C46.1687 6.60869 48.3479 8.78782 48.3479 11.4783C48.3479 12.6043 47.9644 13.6391 47.3192 14.4609Z" fill="#545454"/>
</g>
<defs>
<clipPath id="clip0_1291_326">
<rect width="14.6087" height="14.6087" fill="white" transform="translate(36.174 4.17392)"/>
</clipPath>
</defs>
</svg>
